<svg width="182" height="62" viewBox="0 0 182 62" fill="none" xmlns="http://www.w3.org/2000/svg">
<path d="M0.55007 0.774985C0.78607 1.56712 2.63474 9.76572 4.2474 17.2514C4.91607 20.3011 6.41074 27.2323 7.59074 32.698C11.1701 49.1348 12.4287 55.155 12.9794 58.0463C13.4514 60.8188 14.1201 62.0862 14.8281 61.6506C15.5754 61.1753 24.4647 39.8272 24.6614 38.0449C24.7401 36.9756 23.8354 30.1632 22.4194 21.2121C21.1214 12.9343 19.9414 4.85448 19.7841 3.27021L19.5087 0.418524L11.9961 0.378918C7.86607 0.378918 3.5394 0.299704 2.39874 0.260098C0.66807 0.141277 0.353404 0.260098 0.55007 0.774985Z" fill="#FF0000"/>
<path d="M71.3893 0.418531L64.7026 0.616565L64.1913 3.7851C63.9159 5.5278 62.6179 14.9542 61.3199 24.7767C58.8419 43.273 56.7179 58.4424 56.3639 60.3435L56.1279 61.4129H64.5846C73.9853 61.4129 73.5133 61.5713 73.5133 58.6404C73.5133 57.8087 74.2213 51.9865 75.0866 45.7286C75.9126 39.4312 77.0139 31.5098 77.4466 28.1433C77.9186 24.7767 78.5479 20.4992 78.8233 18.6376C79.1379 16.7761 79.5706 13.4888 79.8066 11.3104C80.0426 9.13202 80.5146 5.96348 80.8293 4.26039C81.1833 2.5573 81.3799 0.933419 81.2619 0.656171C81.0653 0.141284 80.7899 0.141284 71.3893 0.418531Z" fill="#FF0000"/>
<path d="M122.68 0.616545C122.68 0.973006 122.208 4.73564 119.927 21.8062C118.825 30.4008 116.544 46.9564 115.443 54.3629C114.617 59.9871 114.617 60.6208 115.167 60.7792C115.993 61.0168 132.081 60.7792 132.317 60.5416C132.435 60.4227 132.907 57.6107 133.339 54.2441C133.772 50.8775 134.441 47.4713 134.834 46.5604C135.306 45.5702 137.784 42.7977 141.599 39.0351C147.617 33.1337 172.201 9.68649 178.297 4.02273C180.067 2.39885 181.562 0.933399 181.601 0.735365C182.034 -0.254803 165.711 0.814579 161.738 2.04239C155.405 3.98312 153.006 5.88424 143.566 16.2612C140.891 19.1921 138.571 21.6477 138.413 21.7269C137.745 21.9646 137.784 20.5387 138.649 14.4789C139.121 10.9935 139.751 6.71598 139.987 4.97329C140.223 3.23059 140.498 1.44829 140.616 1.01261C140.813 0.220478 140.616 0.220478 131.727 0.220478C125.984 0.220478 122.68 0.378905 122.68 0.616545Z" fill="#FF0000"/>
<path d="M52.5883 0.814606C47.6716 1.40871 43.7776 4.49803 41.0243 9.96376C39.7263 12.6174 36.383 20.2219 29.4603 36.4607C28.123 39.6292 25.2516 46.2832 23.0883 51.3132C20.925 56.3037 19.0763 60.5812 18.9976 60.8188C18.8796 61.0961 21.397 61.1357 26.3136 61.0169L33.8263 60.8188L35.5176 57.0562C36.4616 54.9966 41.1423 45.1742 45.9803 35.2725C56.8756 12.8155 62.5003 1.09185 62.5003 0.695785C62.5003 0.339325 56.089 0.418538 52.5883 0.814606Z" fill="#FF0000"/>
<path d="M111.746 1.01266C107.065 2.04243 103.328 5.01294 101.873 8.85479C101.204 10.7559 100.024 18.6377 98.8049 29.9256C98.5689 31.9059 98.3329 32.6981 97.9396 32.6981C97.6249 32.6981 94.7536 27.3907 90.7809 19.4298C87.1623 12.1422 84.0156 6.12193 83.8189 6.04271C83.6223 6.00311 83.3469 6.79524 83.2289 7.82502C83.0323 9.80535 82.2456 15.6672 80.9476 24.4598C79.7283 33.0545 79.5709 32.3416 84.6056 42.2433C90.7023 54.3233 92.1183 56.2641 96.5236 58.8385C99.1196 60.3832 102.148 61.0565 106.868 61.1357L111.077 61.2149L111.352 59.0365C112.729 48.2635 114.538 34.7576 115.01 31.5098C115.325 29.3315 116.033 24.143 116.584 20.0239C117.921 9.96378 119.101 1.96322 119.376 1.09187C119.573 0.497768 119.298 0.418555 116.898 0.458162C115.443 0.458162 113.083 0.735409 111.746 1.01266Z" fill="#FF0000"/>
<path d="M155.524 29.9652C154.894 30.282 152.613 32.1831 150.489 34.2031L146.634 37.8865L150.332 48.7784L153.99 59.6306L164.924 59.7494C173.656 59.8286 175.82 59.7494 175.662 59.3534C173.735 54.9966 167.324 40.2233 165.711 36.5003C164.531 33.807 163.312 31.2722 162.997 30.9157C161.66 29.4107 157.569 28.8958 155.524 29.9652Z" fill="#FF0000"/>
</svg>
